<?xml version="1.0" standalone="no"?>
<!DOCTYPE svg PUBLIC "-//W3C//DTD SVG 20010904//EN"
 "http://www.w3.org/TR/2001/REC-SVG-20010904/DTD/svg10.dtd">
<svg version="1.0" xmlns="http://www.w3.org/2000/svg"
 width="1080.000000pt" height="1080.000000pt" viewBox="0 0 1080.000000 1080.000000"
 preserveAspectRatio="xMidYMid meet">
<metadata>
Created by potrace 1.14, written by Peter Selinger 2001-2017
</metadata>
<g transform="translate(0.000000,1080.000000) scale(0.100000,-0.100000)"
fill="#000000" stroke="none">
<path d="M5476 7290 c-145 -89 -279 -97 -501 -30 -54 17 -168 30 -258 30 -94
0 -189 -24 -235 -61 -27 -21 -57 -25 -68 -8 -4 7 -20 8 -42 4 -30 -5 -39 -3
-52 15 -13 18 -44 28 -147 50 -118 25 -134 26 -164 13 -30 -12 -35 -12 -45 2
-9 12 -32 15 -106 15 -113 0 -195 -14 -220 -37 -16 -14 -23 -15 -39 -5 -16 10
-33 9 -92 -8 -40 -12 -81 -25 -92 -29 -11 -5 -36 -15 -55 -21 -19 -7 -48 -26
-63 -42 -19 -19 -35 -27 -47 -23 -37 12 -234 -121 -269 -181 -12 -20 -28 -34
-40 -34 -31 0 -189 -174 -202 -222 -6 -25 -17 -42 -29 -45 -30 -8 -140 -230
-140 -283 0 -26 -5 -43 -15 -46 -17 -7 -37 -74 -60 -198 -14 -74 -15 -93 -4
-113 11 -20 11 -28 0 -45 -9 -15 -13 -55 -12 -127 1 -123 8 -170 28 -193 10
-11 13 -27 9 -45 -7 -29 7 -94 39 -188 24 -69 42 -101 64 -117 13 -9 19 -25
19 -44 -1 -49 130 -247 175 -263 19 -7 27 -17 27 -33 0 -25 58 -87 156 -166
l51 -42 32 35 31 35 159 0 c87 0 160 -2 163 -5 5 -5 -8 -80 -27 -162 -5 -23
-5 -23 125 -23 96 0 132 -3 135 -12 2 -7 9 -39 15 -70 13 -66 28 -76 83 -53
25 10 45 31 72 75 l36 60 120 0 120 0 -6 48 c-12 96 -10 92 -63 84 -26 -4
-103 -7 -172 -6 -98 0 -143 5 -205 23 -85 24 -218 82 -229 100 -10 16 2 14 85
-14 112 -39 202 -56 329 -62 146 -7 301 19 423 71 21 9 61 26 90 37 l52 20
-25 -25 c-14 -13 -52 -38 -85 -55 l-59 -31 111 0 c62 0 114 -4 117 -9 3 -4 8
-35 12 -67 10 -88 44 -153 81 -154 7 0 30 33 52 73 22 39 51 91 65 115 l26 42
164 0 c177 0 176 0 176 -56 0 -31 20 -31 50 1 13 14 31 25 41 25 10 0 21 5 24
10 3 6 17 10 30 10 12 0 25 7 29 15 4 13 -8 15 -74 15 -93 0 -121 9 -161 52
-38 42 -37 65 6 121 19 25 35 57 35 72 0 17 7 28 23 34 12 5 30 19 39 30 11
13 30 21 48 21 39 0 152 -43 193 -74 29 -22 121 -86 267 -184 l55 -37 153 -3
c138 -3 152 -5 152 -21 0 -15 11 -19 63 -23 35 -3 79 -12 98 -21 54 -24 91
-33 127 -29 27 3 32 7 27 23 -7 20 9 27 20 9 8 -12 45 -13 45 -1 0 5 10 12 23
16 20 6 20 8 3 12 -10 3 -23 -1 -28 -9 -7 -10 -11 -10 -15 0 -2 6 -20 12 -38
12 -40 0 -105 35 -105 57 0 28 21 53 44 53 13 0 38 5 55 11 25 9 43 9 72 0 36
-11 89 -6 89 8 0 7 -21 9 -130 12 -61 2 -90 -3 -155 -26 -44 -15 -92 -34 -107
-41 -40 -20 -97 -27 -113 -14 -18 15 -8 40 17 40 18 0 90 28 207 81 52 24 218
33 213 11 -1 -6 7 -12 18 -12 38 0 20 18 -44 43 -71 27 -112 25 -191 -9 -86
-37 -149 -47 -292 -48 -134 -1 -143 0 -166 22 -29 28 -49 89 -39 122 17 60 85
110 148 110 37 0 147 -31 197 -55 63 -32 18 11 -105 100 -86 62 -145 76 -220
49 -32 -11 -49 -12 -82 -3 -51 14 -63 23 -87 70 -24 48 -24 80 0 127 29 56 72
75 157 71 104 -6 191 -55 426 -238 14 -12 31 -21 36 -21 5 0 15 -7 23 -16 7
-8 43 -35 81 -59 37 -25 68 -49 68 -55 0 -5 6 -10 14 -10 7 0 34 -16 59 -35
43 -33 86 -48 72 -25 -8 13 5 13 25 0 8 -5 11 -10 5 -10 -5 0 -2 -5 8 -11 29
-17 40 4 17 29 -23 24 -40 28 -57 11 -7 -7 -19 -9 -28 -5 -15 5 -15 9 -4 22
11 14 9 19 -11 35 -14 10 -34 19 -45 19 -18 0 -18 -2 5 -20 14 -11 19 -20 12
-20 -7 0 -22 9 -34 20 -12 11 -16 20 -10 20 25 0 11 18 -25 33 -21 8 -47 26
-59 39 -11 12 -39 39 -62 59 -22 20 -39 39 -37 41 3 2 -11 22 -30 42 -19 21
-35 42 -35 47 0 5 -4 9 -10 9 -13 0 -50 41 -50 57 0 7 6 13 14 13 21 0 125
-73 132 -92 3 -10 27 -41 54 -68 34 -35 57 -50 75 -50 15 0 24 -4 20 -10 -3
-5 0 -10 8 -10 7 0 23 -9 35 -20 22 -21 57 -27 66 -11 3 5 -1 14 -9 21 -21 17
-19 29 7 39 l22 8 -27 23 c-20 18 -24 27 -17 41 8 13 6 20 -7 28 -10 6 -12 11
-5 11 6 0 12 7 12 16 0 12 -5 14 -17 9 -44 -18 -63 -18 -63 2 0 20 29 53 46
53 6 0 10 18 10 40 -1 23 -6 40 -13 40 -6 0 -13 4 -15 10 -1 5 -18 13 -37 16
-25 5 -32 4 -27 -5 4 -6 13 -8 19 -5 7 4 8 3 4 -2 -8 -9 -64 -13 -151 -13 -54
0 -127 30 -180 74 -52 42 -99 128 -94 172 3 25 8 29 56 36 52 9 161 -1 247
-21 22 -5 54 -13 70 -16 29 -7 29 -7 -7 16 -119 74 -197 118 -211 118 -9 0
-19 5 -23 11 -4 7 -54 10 -149 7 -140 -3 -144 -2 -169 21 -14 13 -33 43 -42
67 -16 41 -15 46 1 81 26 56 69 93 106 93 40 0 109 -20 130 -37 8 -7 23 -13
32 -13 9 0 19 -5 22 -11 4 -5 17 -9 28 -8 12 1 31 -1 42 -5 40 -15 47 -15 104
-2 58 14 121 43 121 57 0 7 -50 -4 -68 -15 -5 -3 -38 0 -74 6 -56 9 -68 15
-82 39 -10 16 -12 29 -7 29 6 0 11 6 11 13 0 6 16 23 36 37 52 35 143 31 217
-10 41 -22 57 -26 65 -18 21 21 14 26 -66 52 -59 20 -97 26 -165 26 -67 0 -87
3 -87 14 0 30 47 46 135 46 72 0 91 4 120 23 23 14 33 28 29 38 -3 12 3 19 21
23 14 4 30 4 35 1 4 -3 11 1 13 7 4 10 7 10 14 1 7 -10 13 -10 27 0 16 12 3
15 -97 20 -70 4 -126 3 -142 -3 -14 -5 -40 -10 -56 -10 -16 0 -37 -4 -47 -9
-35 -19 -198 -61 -233 -61 -65 0 -98 67 -57 115 38 43 165 75 183 45 3 -5 13
-10 22 -10 9 0 25 -7 35 -17 25 -22 23 0 -5 52 -19 34 -31 43 -80 60 -63 22
-78 45 -57 85 10 19 18 22 57 17 25 -3 40 -1 33 3 -7 4 -50 11 -96 15 -46 4
-84 11 -84 15 0 5 10 16 22 24 31 22 103 20 199 -5 79 -20 130 -21 234 -4 77
12 56 29 -42 33 -71 3 -94 9 -181 48 -39 18 -70 24 -120 24 -81 -1 -88 -5
-284 -154 -190 -145 -234 -167 -335 -167 -90 0 -113 6 -113 31 0 12 17 25 49
39 54 23 105 27 147 11 70 -27 15 33 -66 72 -32 15 -60 20 -100 18 -169 -8
-202 0 -225 52 -16 40 -6 79 26 97 22 12 35 12 101 -4 65 -15 86 -16 144 -6
92 16 164 52 224 113 57 58 120 171 93 167 -5 -1 -43 -23 -87 -49z m-1306 -99
c111 -25 166 -44 277 -96 95 -45 233 -131 233 -146 0 -14 -4 -12 -98 35 -219
109 -429 157 -692 158 -241 0 -424 -35 -628 -119 -57 -24 -89 -26 -66 -4 11
11 166 91 209 108 92 36 172 57 335 87 62 11 347 -3 430 -23z m890 -12 c91
-11 180 -17 199 -14 24 5 32 3 29 -7 -10 -30 -154 -37 -289 -14 -46 8 -110 17
-141 21 -57 6 -75 19 -40 28 34 9 80 7 242 -14z m-910 -292 c366 -105 620
-364 722 -735 29 -105 31 -373 4 -472 -68 -249 -187 -433 -368 -572 -314 -238
-714 -280 -1062 -109 -117 57 -198 115 -286 204 -204 208 -314 523 -281 807
53 453 360 791 811 894 103 24 351 15 460 -17z m998 -19 c-3 -8 -31 -15 -69
-19 -35 -3 -79 -9 -96 -13 -26 -6 -33 -4 -33 7 0 17 69 34 148 36 39 1 53 -2
50 -11z m472 -90 c0 -26 -173 -118 -185 -98 -6 10 58 54 111 76 18 8 35 18 39
24 9 14 35 12 35 -2z m-562 -219 c218 -454 199 -959 -53 -1394 -33 -58 -86
-128 -91 -122 -2 2 16 46 40 98 118 254 172 464 182 709 12 295 -33 541 -142
778 -19 41 -34 78 -34 84 0 21 58 -70 98 -153z m60 104 c-4 -22 -22 -20 -26 1
-2 10 3 16 13 16 10 0 15 -7 13 -17z m426 -59 c112 -28 291 -124 232 -124 -8
0 -50 7 -93 15 -124 25 -207 28 -310 14 -87 -12 -96 -11 -105 4 -5 9 -21 17
-36 17 -15 0 -40 9 -57 20 -24 16 -26 20 -12 26 9 3 23 4 31 1 7 -3 19 0 25 6
35 35 222 48 325 21z m-374 -84 c0 -5 -4 -10 -10 -10 -5 0 -10 5 -10 10 0 6 5
10 10 10 6 0 10 -4 10 -10z m280 -204 c0 -18 -85 -96 -105 -96 -8 0 -15 -6
-15 -14 0 -7 -9 -16 -19 -19 -15 -4 -21 2 -27 32 -4 20 -8 40 -8 45 -1 5 27
19 61 31 35 12 66 25 70 28 12 12 43 7 43 -7z m558 -297 c42 -16 8 -29 -76
-29 -69 0 -123 -11 -230 -46 -23 -8 -54 -14 -67 -14 -79 0 51 71 190 104 29 7
153 -4 183 -15z m-615 -217 c-2 -11 -20 -25 -39 -32 -25 -10 -34 -20 -34 -37
0 -13 -4 -23 -9 -23 -5 0 -9 16 -9 35 0 34 9 47 35 51 7 1 20 9 29 18 19 20
34 13 27 -12z m841 -318 c9 -22 8 -24 -9 -18 -8 4 -15 12 -15 20 0 19 16 18
24 -2z m41 -44 c3 -5 -1 -10 -9 -10 -9 0 -16 5 -16 10 0 6 4 10 9 10 6 0 13
-4 16 -10z m-520 -129 c0 -7 -24 -21 -55 -30 -30 -10 -71 -24 -90 -33 -51 -23
-146 -42 -167 -34 -16 7 -14 9 12 23 31 17 169 68 220 83 42 12 80 8 80 -9z"/>
<path d="M3760 6874 c-214 -27 -423 -135 -578 -298 -112 -119 -183 -240 -227
-390 -97 -337 -8 -704 231 -952 186 -192 425 -293 694 -294 207 0 370 47 541
155 83 53 219 186 272 267 179 271 215 602 99 901 -115 296 -367 516 -681 593
-57 14 -287 26 -351 18z m283 -61 c9 -9 17 -23 17 -30 0 -22 -150 -310 -171
-329 -35 -32 -60 -12 -133 108 -116 190 -118 193 -107 221 8 20 20 27 63 36
123 24 300 21 331 -6z m373 -143 c28 -21 54 -48 56 -58 4 -15 -38 -72 -170
-229 -96 -114 -184 -211 -195 -216 -24 -9 -67 16 -67 39 0 14 85 184 222 444
16 30 34 58 41 62 20 13 59 -1 113 -42z m-1004 -2 c9 -7 42 -56 74 -108 31
-52 74 -122 95 -155 104 -166 121 -199 112 -225 -6 -18 -17 -26 -38 -28 -28
-3 -49 15 -218 187 -225 227 -225 228 -108 310 49 34 60 37 83 19z m1282 -306
c36 -57 63 -121 86 -203 24 -86 25 -118 6 -144 -13 -19 -16 -19 -142 2 -71 12
-149 25 -174 29 -88 12 -101 51 -43 123 200 247 222 263 267 193z m-1451 -154
c92 -96 117 -128 117 -149 0 -40 10 -36 -278 -105 -69 -17 -97 -13 -112 17
-15 28 11 162 52 269 49 128 72 125 221 -32z m724 -168 c76 -46 93 -157 36
-228 -91 -112 -266 -47 -265 98 1 117 131 190 229 130z m429 -216 c82 -14 197
-34 256 -43 59 -10 114 -24 123 -31 19 -16 19 -54 -1 -116 -21 -62 -31 -74
-61 -74 -31 0 -479 183 -504 206 -11 9 -19 23 -19 31 0 14 35 53 48 53 5 0 76
-12 158 -26z m-834 -21 c23 -20 23 -45 1 -65 -24 -21 -460 -238 -478 -238 -33
0 -85 98 -85 159 0 32 32 45 225 91 99 23 200 48 225 55 61 18 90 18 112 -2z
m365 -241 c14 -9 24 -56 48 -222 9 -63 20 -137 25 -165 29 -166 24 -185 -58
-193 -78 -7 -121 4 -128 34 -6 23 5 203 26 436 4 49 13 95 20 103 13 16 47 20
67 7z m526 -155 c93 -39 135 -66 137 -87 2 -44 -242 -240 -299 -240 -34 0 -46
32 -72 194 -33 211 -26 230 76 195 28 -10 99 -38 158 -62z m-861 28 c13 -30
-7 -342 -24 -362 -26 -33 -116 4 -243 100 -78 58 -106 97 -90 123 14 22 293
163 323 164 14 0 26 -9 34 -25z"/>
<path d="M6457 7083 c-4 -3 -7 -11 -7 -17 0 -6 5 -5 12 2 6 6 9 14 7 17 -3 3
-9 2 -12 -2z"/>
<path d="M6419 7055 c-1 -3 -2 -11 -3 -17 -1 -7 -11 -13 -23 -13 -11 0 -25 -3
-29 -7 -4 -5 -18 -8 -30 -8 -16 0 -22 -5 -18 -14 3 -7 -7 -23 -23 -35 -15 -12
-39 -31 -53 -41 l-25 -19 25 -1 c26 0 69 24 83 47 4 7 15 13 23 13 11 0 13 6
9 19 -7 24 11 37 31 20 8 -6 15 -10 17 -8 1 2 12 16 25 30 20 22 21 27 8 32
-9 4 -17 4 -17 2z"/>
<path d="M6157 6889 c8 -8 16 -8 30 0 16 9 14 10 -11 11 -22 0 -27 -3 -19 -11z"/>
<path d="M6448 6643 c7 -3 16 -2 19 1 4 3 -2 6 -13 5 -11 0 -14 -3 -6 -6z"/>
<path d="M6530 6620 c20 -13 43 -13 35 0 -3 6 -16 10 -28 10 -18 0 -19 -2 -7
-10z"/>
<path d="M6353 6597 c-18 -6 -32 -16 -32 -22 4 -30 -2 -37 -25 -31 -14 3 -28
1 -31 -4 -7 -11 39 -33 93 -45 27 -6 32 -4 32 13 0 18 17 31 75 53 23 9 26 13
13 16 -10 3 -18 11 -18 19 0 17 -57 17 -107 1z m17 -52 c7 -9 10 -18 7 -22 -8
-7 -37 15 -37 28 0 14 16 11 30 -6z"/>
<path d="M6640 6564 c0 -9 40 -23 44 -15 3 5 -5 11 -19 13 -14 3 -25 4 -25 2z"/>
<path d="M7437 6531 c-36 -8 -96 -51 -70 -51 7 0 15 5 18 10 3 6 24 10 46 10
21 0 39 -4 39 -10 0 -5 -9 -10 -20 -10 -11 0 -20 -7 -20 -15 0 -8 -5 -15 -11
-15 -14 0 -43 -30 -35 -37 3 -3 14 1 24 10 64 59 166 82 241 56 52 -18 47 -2
-7 25 -55 28 -143 39 -205 27z"/>
<path d="M6413 6486 c-6 -7 -7 -19 -3 -26 7 -11 11 -10 24 3 9 8 16 20 16 26
0 15 -23 13 -37 -3z"/>
<path d="M6405 6390 c3 -5 10 -10 16 -10 5 0 9 5 9 10 0 6 -7 10 -16 10 -8 0
-12 -4 -9 -10z"/>
<path d="M6351 6381 c-14 -9 28 -41 54 -41 8 0 15 -4 15 -9 0 -15 40 -20 54
-6 9 9 17 10 24 3 6 -6 12 -6 16 1 7 11 -8 14 -57 11 -17 -1 -41 8 -61 23 -19
15 -38 22 -45 18z"/>
<path d="M7374 6378 c-4 -6 0 -16 9 -23 10 -7 17 -17 17 -23 0 -6 10 -18 22
-26 18 -13 19 -16 6 -21 -9 -4 -26 -1 -37 5 -17 9 -22 8 -27 -5 -4 -9 -18 -15
-36 -15 -19 0 -27 -4 -22 -11 3 -6 19 -9 35 -5 18 3 56 -5 106 -23 103 -38
118 -47 201 -115 88 -71 121 -79 189 -42 26 15 62 39 78 53 l30 25 -55 -7
c-30 -3 -74 -9 -97 -12 -68 -9 -133 49 -113 101 11 30 33 43 106 62 102 26
197 12 351 -51 47 -20 88 -34 90 -31 7 7 -44 53 -105 93 -122 81 -281 104
-454 64 -46 -10 -115 -22 -155 -26 -69 -7 -73 -6 -96 19 -27 29 -33 31 -43 14z
m481 -27 c3 -5 -5 -13 -17 -16 -82 -24 -198 -58 -224 -66 -68 -20 -120 -2 -67
24 92 45 292 83 308 58z"/>
<path d="M7315 6370 c-3 -5 3 -10 14 -10 12 0 21 5 21 10 0 6 -6 10 -14 10 -8
0 -18 -4 -21 -10z"/>
<path d="M6445 6360 c3 -5 8 -10 11 -10 2 0 4 5 4 10 0 6 -5 10 -11 10 -5 0
-7 -4 -4 -10z"/>
<path d="M6575 6310 c-8 -13 25 -13 45 0 12 8 9 10 -12 10 -15 0 -30 -4 -33
-10z"/>
<path d="M6718 5953 c7 -3 16 -2 19 1 4 3 -2 6 -13 5 -11 0 -14 -3 -6 -6z"/>
<path d="M6605 5920 c-8 -13 5 -13 25 0 13 8 13 10 -2 10 -9 0 -20 -4 -23 -10z"/>
<path d="M6555 5890 c-3 -5 -2 -10 4 -10 5 0 13 5 16 10 3 6 2 10 -4 10 -5 0
-13 -4 -16 -10z"/>
<path d="M6511 5853 c-6 -10 -11 -15 -11 -11 0 5 -21 -8 -46 -27 -25 -19 -50
-35 -55 -35 -5 0 -9 -4 -9 -10 0 -5 9 -10 21 -10 11 0 18 4 15 9 -5 8 29 25
47 22 4 -1 7 4 7 9 0 6 15 24 33 40 17 16 27 30 20 30 -7 0 -17 -8 -22 -17z"/>
<path d="M6627 5763 c-11 -10 -8 -43 3 -43 6 0 10 11 10 25 0 26 -2 29 -13 18z"/>
<path d="M6357 5746 c-18 -14 -14 -48 7 -45 6 1 24 -3 39 -9 16 -7 35 -12 44
-12 13 0 13 3 3 15 -9 10 -9 15 -1 15 6 0 11 12 11 26 0 23 -2 25 -15 14 -12
-10 -21 -10 -41 -1 -30 13 -25 13 -47 -3z"/>
<path d="M6505 5720 c-3 -5 -1 -10 4 -10 6 0 11 5 11 10 0 6 -2 10 -4 10 -3 0
-8 -4 -11 -10z"/>
<path d="M6636 5674 c-24 -17 -16 -27 12 -17 13 5 18 13 14 20 -5 8 -12 8 -26
-3z"/>
<path d="M6457 5603 c-11 -10 -8 -43 3 -43 6 0 10 -7 10 -15 0 -20 29 -19 36
0 7 17 -38 69 -49 58z"/>
<path d="M6581 5424 c-13 -16 -20 -39 -19 -58 l1 -31 4 32 c3 19 14 41 29 52
25 20 31 31 15 31 -5 0 -19 -12 -30 -26z"/>
<path d="M7703 5340 c-18 -10 -39 -23 -47 -29 -8 -6 -18 -11 -22 -10 -24 4
-44 -2 -38 -12 3 -6 16 -8 28 -6 11 3 30 2 41 -2 13 -5 36 0 66 15 26 13 71
28 100 32 53 9 53 9 26 20 -40 17 -116 13 -154 -8z"/>
<path d="M7645 5261 c-3 -6 -16 -11 -28 -11 -12 0 -33 -7 -47 -15 -14 -8 -40
-22 -57 -31 -18 -10 -33 -24 -33 -31 0 -15 20 -20 111 -28 l67 -5 6 32 c12 56
12 91 -1 95 -6 2 -14 -1 -18 -6z m10 -71 c-11 -17 -23 -1 -18 21 5 19 7 19 15
5 5 -9 6 -21 3 -26z"/>
<path d="M8010 5159 c-105 -76 -172 -86 -263 -39 -32 17 -61 30 -65 30 -3 0 9
-15 27 -34 32 -33 33 -34 13 -45 -26 -14 -55 -14 -69 0 -6 6 -17 9 -25 7 -22
-8 76 -47 135 -54 65 -8 129 11 197 57 45 30 106 96 98 105 -3 2 -24 -10 -48
-27z"/>
<path d="M6546 5161 c-15 -6 -16 -10 -7 -15 8 -5 20 -2 29 8 17 17 9 19 -22 7z"/>
<path d="M7548 5093 c6 -2 18 -2 25 0 6 3 1 5 -13 5 -14 0 -19 -2 -12 -5z"/>
<path d="M6440 5021 c0 -14 18 -23 31 -15 8 4 7 9 -2 15 -18 11 -29 11 -29 0z"/>
<path d="M6507 4959 c-6 -24 0 -27 37 -20 23 5 26 8 15 17 -28 22 -47 23 -52
3z"/>
<path d="M6445 4960 c3 -5 10 -10 16 -10 5 0 9 5 9 10 0 6 -7 10 -16 10 -8 0
-12 -4 -9 -10z"/>
<path d="M6598 4913 c7 -3 16 -2 19 1 4 3 -2 6 -13 5 -11 0 -14 -3 -6 -6z"/>
<path d="M5322 4901 c-11 -7 -11 -9 2 -14 10 -4 16 -1 16 8 0 17 -1 17 -18 6z"/>
<path d="M8073 4802 c-86 -2 -103 -5 -107 -20 -7 -23 -166 -831 -166 -843 0
-5 49 -9 109 -9 96 0 110 2 115 18 23 79 167 844 160 850 -5 4 -55 6 -111 4z"/>
<path d="M5635 4788 c-2 -7 -42 -203 -88 -435 l-84 -423 113 0 c63 0 114 3
114 6 0 33 75 355 88 378 25 43 64 68 115 73 39 5 49 2 71 -20 34 -34 33 -48
-9 -257 -19 -95 -35 -175 -35 -177 0 -2 51 -3 113 -3 l112 0 39 199 c45 233
46 295 4 359 -39 59 -104 87 -198 87 -61 0 -85 -5 -128 -26 -33 -16 -52 -22
-52 -14 0 7 11 67 25 135 14 68 25 124 25 126 0 2 -50 4 -110 4 -80 0 -112 -4
-115 -12z"/>
<path d="M2385 4751 c-5 -9 -165 -795 -165 -813 0 -4 47 -8 105 -8 l104 0 10
38 c5 20 24 111 41 202 18 91 36 168 39 172 4 4 38 -68 77 -160 l70 -167 55
-2 54 -3 130 170 c72 93 131 165 133 160 3 -8 -62 -348 -74 -392 -5 -16 5 -18
105 -18 61 0 111 3 111 7 0 3 34 178 75 387 42 210 78 393 81 409 l6 27 -99 0
-98 0 -189 -242 c-157 -200 -191 -238 -198 -222 -4 10 -48 118 -97 239 l-89
220 -90 3 c-53 2 -93 -1 -97 -7z"/>
<path d="M4180 4746 c0 -19 88 -740 95 -784 l6 -33 126 3 126 3 126 237 c69
131 128 238 132 238 3 0 18 -108 33 -240 l29 -240 126 0 126 0 213 405 c116
223 212 410 212 415 0 7 -40 10 -112 8 l-112 -3 -136 -257 c-74 -142 -137
-259 -140 -262 -3 -3 -19 110 -34 252 -16 141 -30 260 -33 265 -2 4 -51 7
-108 7 l-103 0 -137 -261 c-76 -143 -139 -258 -141 -256 -3 2 -18 114 -34 248
-17 134 -32 250 -35 257 -7 19 -225 17 -225 -2z"/>
<path d="M5165 4730 c-3 -6 -28 -8 -56 -6 l-49 3 1 -41 c1 -69 13 -121 29
-121 8 0 24 15 37 33 20 30 21 36 8 56 -13 20 -13 22 6 23 18 2 19 0 7 -15
-12 -15 -11 -16 4 -3 10 7 16 17 13 21 -3 5 -1 10 4 12 13 5 24 48 12 48 -5 0
-13 -5 -16 -10z"/>
<path d="M6582 4565 c-29 -8 -67 -22 -84 -31 -57 -30 -124 -102 -154 -167 -25
-54 -29 -74 -29 -152 0 -73 4 -98 22 -131 30 -57 79 -102 143 -133 49 -23 67
-26 165 -26 120 0 200 19 249 58 l26 22 -44 66 -45 67 -42 -21 c-89 -44 -204
-31 -240 27 -10 17 -19 34 -19 39 0 4 105 7 234 7 l234 0 6 23 c10 37 7 137
-6 179 -17 57 -87 131 -150 158 -68 29 -191 36 -266 15z m169 -161 c25 -12 59
-64 59 -89 0 -3 -58 -5 -130 -5 -143 0 -149 3 -108 55 41 52 121 70 179 39z"/>
<path d="M7346 4569 c-62 -15 -155 -69 -192 -113 -91 -106 -116 -257 -61 -374
60 -130 256 -195 442 -147 62 17 135 53 135 67 0 7 -61 103 -85 136 -1 2 -19
-7 -39 -19 -23 -13 -61 -23 -100 -26 -77 -7 -127 13 -150 60 l-15 32 237 5
237 5 8 50 c17 98 -26 216 -98 271 -71 54 -213 78 -319 53z m186 -188 c15 -17
28 -40 28 -51 0 -19 -7 -20 -130 -20 -71 0 -130 3 -130 8 0 4 9 22 20 40 27
44 72 63 134 58 41 -3 55 -9 78 -35z"/>
<path d="M3380 4557 c0 -7 31 -152 70 -321 72 -321 73 -333 30 -356 -27 -15
-91 -12 -124 5 -16 9 -30 14 -31 13 -10 -11 -95 -148 -95 -152 0 -3 19 -16 43
-28 35 -19 57 -23 137 -23 82 0 102 4 144 25 27 14 68 46 91 72 35 39 485 757
485 773 0 3 -48 5 -108 5 l-107 0 -114 -190 c-63 -105 -118 -187 -122 -183 -4
4 -21 80 -39 168 -17 88 -34 170 -37 183 -5 21 -9 22 -114 22 -83 0 -109 -3
-109 -13z"/>
<path d="M5883 4283 c4 -3 1 -13 -6 -22 -11 -14 -10 -14 5 -2 16 12 16 31 1
31 -4 0 -3 -3 0 -7z"/>
<path d="M5416 4252 c-3 -5 1 -9 9 -9 8 0 12 4 9 9 -3 4 -7 8 -9 8 -2 0 -6 -4
-9 -8z"/>
<path d="M4625 3901 c-3 -5 -2 -12 3 -15 5 -3 9 1 9 9 0 17 -3 19 -12 6z"/>
<path d="M7133 3895 c0 -8 4 -12 9 -9 5 3 6 10 3 15 -9 13 -12 11 -12 -6z"/>
<path d="M3746 3782 c-3 -5 1 -9 9 -9 8 0 12 4 9 9 -3 4 -7 8 -9 8 -2 0 -6 -4
-9 -8z"/>
<path d="M3207 3639 c7 -7 15 -10 18 -7 3 3 -2 9 -12 12 -14 6 -15 5 -6 -5z"/>
</g>
</svg>
